<?xml version="1.0" encoding="utf-8"?>
<!-- Generator: Adobe Illustrator 26.0.1, SVG Export Plug-In . SVG Version: 6.00 Build 0)  -->
<svg version="1.1" id="Layer_1" xmlns="http://www.w3.org/2000/svg" xmlns:xlink="http://www.w3.org/1999/xlink" x="0px" y="0px"
	 viewBox="0 0 42 46" style="enable-background:new 0 0 42 46;" xml:space="preserve">
<style type="text/css">
	.st0{fill:#800000;}
</style>
<g>
	<path class="st0" d="M25.7,8.4c0-0.9-0.3-1.8-0.8-2.6c-0.5-0.8-1.2-1.3-2.1-1.7c-0.9-0.3-1.8-0.4-2.7-0.3c-0.9,0.2-1.7,0.6-2.4,1.3
		c-0.7,0.6-1.1,1.5-1.3,2.4s-0.1,1.8,0.3,2.7c0.4,0.8,1,1.6,1.7,2.1c0.8,0.5,1.7,0.8,2.6,0.8c1.2,0,2.4-0.5,3.3-1.3
		C25.2,10.8,25.7,9.7,25.7,8.4z M17.9,8.4c0-0.6,0.2-1.2,0.5-1.7c0.3-0.5,0.8-0.9,1.4-1.1c0.6-0.2,1.2-0.3,1.8-0.2
		c0.6,0.1,1.2,0.4,1.6,0.8c0.4,0.4,0.7,1,0.9,1.6c0.1,0.6,0.1,1.2-0.2,1.8c-0.2,0.6-0.6,1-1.1,1.4c-0.5,0.3-1.1,0.5-1.7,0.5
		c-0.8,0-1.6-0.3-2.2-0.9C18.2,10,17.9,9.2,17.9,8.4z"/>
	<path class="st0" d="M20.6,21.3c0.1,0.1,0.3,0.1,0.4,0.1s0.3,0,0.4-0.1c1.5-1.1,2.8-2.3,4-3.7c2.7-3,4.1-6.2,4.1-9.2
		c0-2.2-0.9-4.4-2.5-6C25.4,0.9,23.3,0,21,0s-4.4,0.9-6,2.5c-1.6,1.6-2.5,3.7-2.5,6c0,3,1.4,6.2,4.1,9.2
		C17.7,19,19.1,20.3,20.6,21.3z M21,1.5c1.9,0,3.6,0.7,4.9,2c1.3,1.3,2.1,3,2.1,4.9c0,5.5-5.4,10.1-7,11.3c-1.6-1.2-7-5.8-7-11.3
		c0-1.8,0.7-3.6,2.1-4.9C17.4,2.3,19.1,1.5,21,1.5z"/>
	<path class="st0" d="M10.7,39.8l0.5-1.5l1.6,0.5l-0.5,1.5L10.7,39.8z"/>
	<path class="st0" d="M13.8,40.8l0.5-1.5l1.6,0.5l-0.5,1.5L13.8,40.8z"/>
	<path class="st0" d="M16.9,41.7l0.5-1.5l1.6,0.5l-0.5,1.5L16.9,41.7z"/>
	<path class="st0" d="M41.5,17.7l-11.7-3.5l-0.5,1.5l9.3,2.8L21,23.7L3.4,18.4l9.3-2.8l-0.5-1.5L0.5,17.7c-0.2,0-0.3,0.1-0.4,0.3
		C0.1,18.1,0,18.2,0,18.4v20.7c0,0.2,0.1,0.3,0.2,0.5c0.1,0.1,0.2,0.2,0.4,0.3L20.8,46c0.1,0,0.3,0,0.5,0l20.2-6.1
		c0.2,0,0.3-0.1,0.4-0.3c0.1-0.1,0.2-0.3,0.2-0.5V18.4c0-0.2-0.1-0.3-0.2-0.5C41.7,17.8,41.6,17.7,41.5,17.7z M1.6,19.4l18.7,5.7
		v19.1L1.6,38.5V19.4z M21.8,44.2V25.1l18.7-5.7v19.1L21.8,44.2z"/>
	<path class="st0" d="M30.9,38.4l1.6-0.5l0.5,1.5l-1.6,0.5L30.9,38.4z"/>
	<path class="st0" d="M34,37.4l1.6-0.5l0.5,1.5l-1.6,0.5L34,37.4z"/>
	<path class="st0" d="M37.1,36.5l1.6-0.5l0.5,1.5L37.6,38L37.1,36.5z"/>
	<path class="st0" d="M14.8,31c0.2,0,0.4-0.1,0.6-0.2c0.1-0.1,0.2-0.3,0.2-0.5v-3.8c0-0.2-0.1-0.3-0.2-0.5c-0.1-0.1-0.2-0.2-0.4-0.3
		l-7.8-2.4c-0.1,0-0.2,0-0.4,0c-0.1,0-0.2,0.1-0.3,0.1c-0.1,0.1-0.2,0.2-0.2,0.3c-0.1,0.1-0.1,0.2-0.1,0.3v3.8
		c0,0.2,0.1,0.3,0.2,0.5c0.1,0.1,0.2,0.2,0.4,0.3l7.8,2.4C14.6,31,14.7,31,14.8,31z M14,29.2l-6.2-1.9V25l6.2,1.9V29.2z"/>
	<path class="st0" d="M35.8,27.8V24c0-0.1,0-0.2-0.1-0.3c-0.1-0.1-0.1-0.2-0.2-0.3c-0.1-0.1-0.2-0.1-0.3-0.1c-0.1,0-0.2,0-0.4,0
		L27,25.6c-0.2,0-0.3,0.1-0.4,0.3c-0.1,0.1-0.2,0.3-0.2,0.5v3.8c0,0.1,0,0.2,0.1,0.3s0.1,0.2,0.2,0.3c0.1,0.1,0.2,0.1,0.3,0.1
		c0.1,0,0.2,0,0.4,0l7.8-2.4c0.2,0,0.3-0.1,0.4-0.3C35.7,28.2,35.8,28,35.8,27.8z M34.2,27.3L28,29.2v-2.2l6.2-1.9V27.3z"/>
</g>
</svg>
