<?xml version="1.0" encoding="utf-8"?>
<!-- Generator: Adobe Illustrator 26.0.1, SVG Export Plug-In . SVG Version: 6.00 Build 0)  -->
<svg version="1.1" id="Layer_1" xmlns="http://www.w3.org/2000/svg" xmlns:xlink="http://www.w3.org/1999/xlink" x="0px" y="0px"
	 viewBox="0 0 45 45" style="enable-background:new 0 0 45 45;" xml:space="preserve">
<style type="text/css">
	.st0{fill:#800000;}
</style>
<path class="st0" d="M39.2,31.9V29c0-1-0.4-1.9-1.1-2.6c-0.7-0.7-1.6-1.1-2.6-1.1h-6.1c0.7-1.2,1.2-2.5,1.6-3.9l2.8-2.2
	c0.4-0.3,0.7-0.8,0.9-1.3c0.2-0.5,0.1-1.1,0-1.6c-0.2-0.5-0.5-1-0.9-1.3c-0.4-0.3-1-0.5-1.5-0.5l1.6-4.4c0.4-1.1,0.5-2.4,0.4-3.5
	c-0.2-1.2-0.6-2.3-1.3-3.3c-0.7-1-1.6-1.8-2.7-2.4C29.2,0.3,28,0,26.8,0h-6.2c-4.6,0-9.1,1.3-13,3.7C7.5,3.8,7.4,3.9,7.3,4
	C7.3,4.2,7.2,4.3,7.3,4.4c0,0.1,0.1,0.3,0.2,0.4C7.5,4.9,7.6,5,7.8,5l1.7,0.6C9.7,5.7,10,5.8,10.2,6c0.2,0.2,0.3,0.4,0.4,0.6
	c0.1,0.2,0.2,0.5,0.2,0.7c0,0.3,0,0.5-0.1,0.7c-0.2,0.4-0.3,0.9-0.2,1.4c0,0.5,0.1,0.9,0.3,1.3l1.9,3.7c-0.5,0-1,0.2-1.5,0.6
	c-0.4,0.3-0.7,0.8-0.9,1.3c-0.2,0.5-0.2,1.1,0,1.6c0.2,0.5,0.5,1,0.9,1.3l2.8,2.2c0.4,1.4,0.9,2.7,1.6,3.9H9.4c-1,0-1.9,0.4-2.6,1.1
	c-0.7,0.7-1.1,1.6-1.1,2.6v2.9c-1.7,0.7-3.2,1.9-4.2,3.5C0.6,37,0,38.8,0,40.6v3.6c0,0.2,0.1,0.4,0.2,0.5C0.3,44.9,0.5,45,0.7,45
	h43.5c0.2,0,0.4-0.1,0.5-0.2s0.2-0.3,0.2-0.5v-3.6c0-1.9-0.6-3.7-1.6-5.2C42.4,33.9,40.9,32.7,39.2,31.9z M24,14.5
	c-0.2,0-0.4,0.1-0.5,0.2c-0.1,0.1-0.2,0.3-0.2,0.5V16h-1.5v-0.7c0-0.2-0.1-0.4-0.2-0.5c-0.1-0.1-0.3-0.2-0.5-0.2h-6.5v-1.1l4.5-3
	c1-0.7,2.1-1,3.3-1c1.7,0,3.3-0.6,4.6-1.6l1.2-0.9l1.2,1.9c0.7,1.1,1.1,2.3,1.1,3.6v2.2H24z M27.6,16v2.2c0,0.2-0.1,0.4-0.2,0.5
	c-0.1,0.1-0.3,0.2-0.5,0.2h-1.5c-0.2,0-0.4-0.1-0.5-0.2c-0.1-0.1-0.2-0.3-0.2-0.5V16H27.6z M20.3,16v2.2c0,0.2-0.1,0.4-0.2,0.5
	c-0.1,0.1-0.3,0.2-0.5,0.2h-1.5c-0.2,0-0.4-0.1-0.5-0.2c-0.1-0.1-0.2-0.3-0.2-0.5V16H20.3z M33.4,17.2c0,0.2,0,0.4-0.1,0.5
	c-0.1,0.2-0.2,0.3-0.3,0.4l-1.3,1.1c0.2-1.1,0.3-2.2,0.3-3.3h0.2c0.2,0,0.3,0,0.5,0.1c0.1,0.1,0.3,0.2,0.4,0.3
	c0.1,0.1,0.2,0.3,0.3,0.4S33.4,17,33.4,17.2z M12,8.6c0.2-0.4,0.2-0.9,0.2-1.3c0-0.5-0.1-0.9-0.3-1.3c-0.2-0.4-0.5-0.8-0.8-1.1
	c-0.3-0.3-0.7-0.5-1.2-0.7L9.7,4.2c3.4-1.8,7.1-2.7,10.9-2.7h6.2c1,0,1.9,0.2,2.8,0.7c0.9,0.4,1.6,1.1,2.2,1.9
	c0.6,0.8,0.9,1.7,1,2.7c0.1,1,0,1.9-0.3,2.9l-0.6,1.7c-0.2-1.2-0.6-2.4-1.3-3.4l-1.7-2.5c-0.1-0.1-0.1-0.2-0.2-0.2
	c-0.1-0.1-0.2-0.1-0.3-0.1c-0.1,0-0.2,0-0.3,0c-0.1,0-0.2,0.1-0.3,0.1L26,6.7C25,7.5,23.7,8,22.3,8c-1.5,0-2.9,0.4-4.1,1.2l-4.9,3.2
	c0,0-0.1,0.1-0.1,0.1l-1.2-2.4c-0.1-0.2-0.2-0.5-0.2-0.8C11.9,9.1,11.9,8.9,12,8.6z M12.1,18.2c-0.2-0.2-0.3-0.4-0.4-0.6
	c-0.1-0.2-0.1-0.5,0-0.7c0.1-0.2,0.2-0.5,0.5-0.6c0.2-0.1,0.5-0.2,0.7-0.2h0.2c0,1.1,0.1,2.2,0.3,3.3L12.1,18.2z M14.5,16H16v2.2
	c0,0.6,0.2,1.1,0.6,1.5c0.4,0.4,1,0.6,1.5,0.6h1.5c0.6,0,1.1-0.2,1.5-0.6c0.4-0.4,0.6-1,0.6-1.5v-0.7h1.5v0.7c0,0.6,0.2,1.1,0.6,1.5
	c0.4,0.4,1,0.6,1.5,0.6h1.5c0.6,0,1.1-0.2,1.5-0.6c0.4-0.4,0.6-1,0.6-1.5V16h1.4c-0.1,3.3-1,6.6-2.7,9.4H17.2
	C15.5,22.5,14.6,19.3,14.5,16z M9.4,26.9h26.1c0.6,0,1.1,0.2,1.5,0.6c0.4,0.4,0.6,1,0.6,1.5v14.5H7.3V29c0-0.6,0.2-1.1,0.6-1.5
	C8.3,27.1,8.9,26.9,9.4,26.9z M1.5,40.6c0-1.5,0.4-2.9,1.2-4.2c0.8-1.3,1.9-2.3,3.2-2.9v10H1.5V40.6z M43.5,43.5h-4.4v-10
	c1.3,0.7,2.4,1.7,3.2,2.9c0.8,1.3,1.2,2.7,1.2,4.2V43.5z"/>
<path class="st0" d="M22.5,41.4c0.6,0,1.1-0.2,1.6-0.5c0.5-0.3,0.8-0.8,1.1-1.3c0.2-0.5,0.3-1.1,0.2-1.7c-0.1-0.6-0.4-1.1-0.8-1.5
	c-0.4-0.4-0.9-0.7-1.5-0.8s-1.1-0.1-1.7,0.2s-1,0.6-1.3,1.1c-0.3,0.5-0.5,1-0.5,1.6c0,0.8,0.3,1.5,0.9,2.1
	C21,41.1,21.7,41.4,22.5,41.4z M22.5,37c0.3,0,0.6,0.1,0.8,0.2c0.2,0.2,0.4,0.4,0.5,0.7c0.1,0.3,0.1,0.6,0.1,0.8
	c-0.1,0.3-0.2,0.5-0.4,0.7c-0.2,0.2-0.5,0.3-0.7,0.4c-0.3,0.1-0.6,0-0.8-0.1c-0.3-0.1-0.5-0.3-0.7-0.5S21,38.8,21,38.5
	c0-0.4,0.2-0.8,0.4-1C21.7,37.2,22.1,37,22.5,37z"/>
<path class="st0" d="M17.6,34.6l1-1l-2.4-2.4l2.4-2.4l-1-1l-2.9,2.9c-0.1,0.1-0.2,0.3-0.2,0.5c0,0.2,0.1,0.4,0.2,0.5L17.6,34.6z"/>
<path class="st0" d="M27.4,34.6l2.9-2.9c0.1-0.1,0.2-0.3,0.2-0.5c0-0.2-0.1-0.4-0.2-0.5l-2.9-2.9l-1,1l2.4,2.4l-2.4,2.4L27.4,34.6z"
	/>
<path class="st0" d="M24.1,27.9l-4.4,5.8l1.2,0.9l4.4-5.8L24.1,27.9z"/>
</svg>
