<?xml version="1.0" encoding="utf-8"?>
<!-- Generator: Adobe Illustrator 26.0.1, SVG Export Plug-In . SVG Version: 6.00 Build 0)  -->
<svg version="1.1" id="Layer_1" xmlns="http://www.w3.org/2000/svg" xmlns:xlink="http://www.w3.org/1999/xlink" x="0px" y="0px"
	 viewBox="0 0 38 49" style="enable-background:new 0 0 38 49;" xml:space="preserve">
<style type="text/css">
	.st0{fill:#800000;}
</style>
<path class="st0" d="M27.7,30.8c0,2.3-0.9,4.5-2.5,6.1c-1.6,1.6-3.8,2.5-6.1,2.5c-2.3,0-4.5-0.9-6.1-2.5c-1.6-1.6-2.5-3.8-2.5-6.1
	c0-0.1,0-0.2-0.1-0.3c0-0.1-0.1-0.2-0.2-0.3c-0.1-0.1-0.2-0.1-0.3-0.2c-0.1,0-0.2-0.1-0.3-0.1H1.6c-0.1,0-0.2,0-0.3,0.1
	c-0.1,0-0.2,0.1-0.3,0.2c-0.1,0.1-0.1,0.2-0.2,0.3c0,0.1-0.1,0.2-0.1,0.3c0,1.2,0.1,2.3,0.3,3.5c0,0.2,0.1,0.3,0.3,0.5
	C1.5,34.9,1.7,35,1.9,35H3c0.2,0,0.4,0.1,0.5,0.2c0.1,0.1,0.3,0.3,0.3,0.5c0.3,0.9,0.6,1.7,1,2.5C5,38.3,5,38.5,5,38.7
	c0,0.2-0.1,0.4-0.2,0.5L4,40c-0.1,0.1-0.2,0.3-0.2,0.5c0,0.2,0,0.4,0.1,0.5c1.3,2,3,3.6,4.9,4.9C9,46,9.2,46.1,9.3,46
	c0.2,0,0.4-0.1,0.5-0.2l0.8-0.8c0.1-0.1,0.3-0.2,0.5-0.2c0.2,0,0.4,0,0.5,0.1c0.8,0.4,1.6,0.8,2.5,1c0.2,0,0.3,0.2,0.5,0.3
	c0.1,0.1,0.2,0.3,0.2,0.5v1.1c0,0.2,0.1,0.4,0.2,0.5c0.1,0.1,0.3,0.2,0.5,0.3c2.3,0.5,4.7,0.5,7,0c0.2,0,0.3-0.1,0.5-0.3
	c0.1-0.1,0.2-0.3,0.2-0.5v-1.1c0-0.2,0.1-0.4,0.2-0.5c0.1-0.1,0.3-0.3,0.5-0.3c0.9-0.3,1.7-0.6,2.5-1c0.2-0.1,0.4-0.1,0.5-0.1
	c0.2,0,0.4,0.1,0.5,0.2l0.8,0.8c0.1,0.1,0.3,0.2,0.5,0.2c0.2,0,0.4,0,0.5-0.1c2-1.3,3.6-3,4.9-4.9c0.1-0.2,0.1-0.3,0.1-0.5
	c0-0.2-0.1-0.4-0.2-0.5l-0.8-0.8c-0.1-0.1-0.2-0.3-0.2-0.5c0-0.2,0-0.4,0.1-0.5c0.4-0.8,0.8-1.6,1-2.5c0-0.2,0.2-0.3,0.3-0.5
	c0.1-0.1,0.3-0.2,0.5-0.2H36c0.2,0,0.4-0.1,0.5-0.2c0.1-0.1,0.2-0.3,0.3-0.5c0.2-1.2,0.3-2.3,0.3-3.5c0-0.1,0-0.2-0.1-0.3
	c0-0.1-0.1-0.2-0.2-0.3c-0.1-0.1-0.2-0.1-0.3-0.2c-0.1,0-0.2-0.1-0.3-0.1h-7.9c-0.1,0-0.2,0-0.3,0.1c-0.1,0-0.2,0.1-0.3,0.2
	c-0.1,0.1-0.1,0.2-0.2,0.3C27.7,30.6,27.7,30.7,27.7,30.8z M35.5,31.6c0,0.6-0.1,1.2-0.2,1.8h-0.5c-0.5,0-1,0.2-1.5,0.5
	c-0.4,0.3-0.7,0.8-0.9,1.3c-0.2,0.8-0.6,1.5-0.9,2.2c-0.3,0.5-0.3,1-0.3,1.5c0.1,0.5,0.3,1,0.7,1.4l0.3,0.3c-1,1.4-2.2,2.6-3.6,3.6
	l-0.3-0.3c-0.4-0.4-0.9-0.6-1.4-0.7c-0.5-0.1-1.1,0-1.5,0.3c-0.7,0.4-1.5,0.7-2.2,0.9c-0.5,0.2-0.9,0.5-1.3,0.9
	c-0.3,0.4-0.5,0.9-0.5,1.5v0.5c-1.7,0.3-3.4,0.3-5.1,0v-0.5c0-0.5-0.2-1-0.5-1.5c-0.3-0.4-0.8-0.7-1.3-0.9c-0.8-0.2-1.5-0.6-2.2-0.9
	c-0.5-0.3-1-0.3-1.5-0.3c-0.5,0.1-1,0.3-1.4,0.7l-0.3,0.3c-1.4-1-2.6-2.2-3.6-3.6l0.3-0.3c0.4-0.4,0.6-0.9,0.7-1.4
	c0.1-0.5,0-1.1-0.3-1.5c-0.4-0.7-0.7-1.5-0.9-2.2c-0.2-0.5-0.5-0.9-0.9-1.3c-0.4-0.3-0.9-0.5-1.5-0.5H2.6c-0.1-0.6-0.2-1.2-0.2-1.8
	h6.3c0.2,2.6,1.4,5,3.3,6.7c1.9,1.8,4.4,2.7,7,2.7c2.6,0,5.1-1,7-2.7c1.9-1.8,3.1-4.2,3.3-6.7H35.5z"/>
<path class="st0" d="M19.8,0h-1.6v3.2h1.6V0z"/>
<path class="st0" d="M37.9,17.4h-3.2V19h3.2V17.4z"/>
<path class="st0" d="M3.2,17.4H0V19h3.2V17.4z"/>
<path class="st0" d="M6.1,4.2L5,5.3l2.2,2.2l1.1-1.1L6.1,4.2z"/>
<path class="st0" d="M31.8,4.2l-2.2,2.2l1.1,1.1l2.2-2.2L31.8,4.2z"/>
<path class="st0" d="M19.8,37.9V22c0.5-0.2,1-0.6,1.3-1c0.3-0.5,0.4-1,0.3-1.6c-0.1-0.6-0.4-1.1-0.8-1.4c-0.4-0.4-1-0.6-1.5-0.6
	c-0.6,0-1.1,0.2-1.5,0.6c-0.4,0.4-0.7,0.9-0.8,1.4c-0.1,0.6,0,1.1,0.3,1.6c0.3,0.5,0.7,0.8,1.3,1v16H19.8z M19,19
	c0.2,0,0.3,0,0.4,0.1c0.1,0.1,0.2,0.2,0.3,0.4c0.1,0.1,0.1,0.3,0,0.5c0,0.2-0.1,0.3-0.2,0.4s-0.3,0.2-0.4,0.2c-0.2,0-0.3,0-0.5,0
	c-0.1-0.1-0.3-0.2-0.4-0.3c-0.1-0.1-0.1-0.3-0.1-0.4c0-0.2,0.1-0.4,0.2-0.6C18.6,19.1,18.8,19,19,19z"/>
<path class="st0" d="M22.9,27.1l2.2-3c0.1-0.1,0.2-0.3,0.2-0.5v-6.5c0.5-0.2,1-0.6,1.3-1c0.3-0.5,0.4-1,0.3-1.6s-0.4-1.1-0.8-1.4
	c-0.4-0.4-1-0.6-1.5-0.6c-0.6,0-1.1,0.2-1.5,0.6c-0.4,0.4-0.7,0.9-0.8,1.4c-0.1,0.6,0,1.1,0.3,1.6c0.3,0.5,0.7,0.8,1.3,1v6.2l-2.2,3
	c-0.1,0.1-0.2,0.3-0.2,0.5v9.5h1.6V27.1z M24.5,14.2c0.2,0,0.3,0,0.4,0.1c0.1,0.1,0.2,0.2,0.3,0.4c0.1,0.1,0.1,0.3,0,0.5
	c0,0.2-0.1,0.3-0.2,0.4c-0.1,0.1-0.3,0.2-0.4,0.2c-0.2,0-0.3,0-0.5,0c-0.1-0.1-0.3-0.2-0.4-0.3c-0.1-0.1-0.1-0.3-0.1-0.4
	c0-0.2,0.1-0.4,0.2-0.6C24.1,14.3,24.3,14.2,24.5,14.2z"/>
<path class="st0" d="M16.6,36.4v-9.5c0-0.2-0.1-0.3-0.2-0.5l-2.2-3v-6.2c0.5-0.2,1-0.6,1.3-1c0.3-0.5,0.4-1,0.3-1.6
	c-0.1-0.6-0.4-1.1-0.8-1.4c-0.4-0.4-1-0.6-1.5-0.6c-0.6,0-1.1,0.2-1.5,0.6c-0.4,0.4-0.7,0.9-0.8,1.4c-0.1,0.6,0,1.1,0.3,1.6
	c0.3,0.5,0.7,0.8,1.3,1v6.5c0,0.2,0.1,0.3,0.2,0.5l2.2,3v9.2H16.6z M13.4,14.2c0.2,0,0.3,0,0.4,0.1c0.1,0.1,0.2,0.2,0.3,0.4
	c0.1,0.1,0.1,0.3,0,0.5c0,0.2-0.1,0.3-0.2,0.4c-0.1,0.1-0.3,0.2-0.4,0.2c-0.2,0-0.3,0-0.5,0c-0.1-0.1-0.3-0.2-0.4-0.3
	c-0.1-0.1-0.1-0.3-0.1-0.4c0-0.2,0.1-0.4,0.2-0.6C13,14.3,13.2,14.2,13.4,14.2z"/>
<path class="st0" d="M6.3,20.4v2.5c0,0.2,0.1,0.4,0.2,0.6l5.3,5.3v4.4h1.6v-4.7c0-0.2-0.1-0.4-0.2-0.6l-5.3-5.3v-2.2
	c0.5-0.2,1-0.6,1.3-1c0.3-0.5,0.4-1,0.3-1.6c-0.1-0.6-0.4-1.1-0.8-1.4c-0.4-0.4-1-0.6-1.5-0.6c-0.6,0-1.1,0.2-1.5,0.6
	c-0.4,0.4-0.7,0.9-0.8,1.4c-0.1,0.6,0,1.1,0.3,1.6C5.4,19.8,5.8,20.2,6.3,20.4z M7.1,17.4c0.2,0,0.3,0,0.4,0.1
	c0.1,0.1,0.2,0.2,0.3,0.4c0.1,0.1,0.1,0.3,0,0.5c0,0.2-0.1,0.3-0.2,0.4c-0.1,0.1-0.3,0.2-0.4,0.2c-0.2,0-0.3,0-0.5,0
	c-0.1-0.1-0.3-0.2-0.4-0.3c-0.1-0.1-0.1-0.3-0.1-0.4c0-0.2,0.1-0.4,0.2-0.6C6.7,17.5,6.9,17.4,7.1,17.4z"/>
<path class="st0" d="M30.8,15.8c-0.6,0-1.1,0.2-1.5,0.6c-0.4,0.4-0.7,0.9-0.8,1.4c-0.1,0.6,0,1.1,0.3,1.6c0.3,0.5,0.7,0.8,1.3,1v2.9
	l-5.3,4.5c-0.1,0.1-0.2,0.2-0.2,0.3c0,0.1-0.1,0.2-0.1,0.3V34h1.6v-5.2l5.3-4.5c0.1-0.1,0.2-0.2,0.2-0.3c0-0.1,0.1-0.2,0.1-0.3v-3.3
	c0.5-0.2,1-0.6,1.3-1c0.3-0.5,0.4-1,0.3-1.6c-0.1-0.6-0.4-1.1-0.8-1.4C31.9,16,31.4,15.8,30.8,15.8z M30.8,19c-0.2,0-0.3,0-0.4-0.1
	c-0.1-0.1-0.2-0.2-0.3-0.4C30,18.3,30,18.2,30,18c0-0.2,0.1-0.3,0.2-0.4c0.1-0.1,0.3-0.2,0.4-0.2s0.3,0,0.5,0
	c0.1,0.1,0.3,0.2,0.4,0.3c0.1,0.1,0.1,0.3,0.1,0.4c0,0.2-0.1,0.4-0.2,0.6C31.2,18.9,31,19,30.8,19z"/>
<path class="st0" d="M12.8,5l-6.3,7.1c-0.1,0.1-0.2,0.3-0.2,0.5V15h1.6v-2.1l5.9-6.6h10.4l5.9,6.6V15h1.6v-2.4
	c0-0.2-0.1-0.4-0.2-0.5L25.1,5c-0.1-0.1-0.2-0.2-0.3-0.2c-0.1,0-0.2-0.1-0.3-0.1H13.4c-0.1,0-0.2,0-0.3,0.1C13,4.9,12.9,4.9,12.8,5z
	"/>
</svg>
